<?xml version="1.0" encoding="UTF-8" standalone="no"?>
<!-- Created with Inkscape (http://www.inkscape.org/) -->

<svg
   width="86.196396"
   height="101.45518"
   viewBox="0 0 86.196396 101.45518"
   version="1.1"
   id="svg1"
   xml:space="preserve"
   xmlns:xlink="http://www.w3.org/1999/xlink"
   xmlns="http://www.w3.org/2000/svg"
   xmlns:svg="http://www.w3.org/2000/svg"><defs
     id="defs1"><linearGradient
       id="linearGradient2"><stop
         style="stop-color:#0a209a;stop-opacity:1;"
         offset="0"
         id="stop1" /><stop
         style="stop-color:#0d7cd6;stop-opacity:1;"
         offset="1"
         id="stop2" /></linearGradient><linearGradient
       id="linearGradient13"><stop
         style="stop-color:#001aa4;stop-opacity:1;"
         offset="0"
         id="stop13" /><stop
         style="stop-color:#0e88eb;stop-opacity:1;"
         offset="1"
         id="stop14" /></linearGradient><linearGradient
       xlink:href="#linearGradient2"
       id="linearGradient14"
       x1="256"
       y1="337.7915"
       x2="256"
       y2="218.17085"
       gradientUnits="userSpaceOnUse"
       gradientTransform="matrix(0.61416155,0,0,0.61416155,-109.74833,-8.8453567)" /><linearGradient
       xlink:href="#linearGradient13"
       id="linearGradient18"
       x1="307.07968"
       y1="233.34369"
       x2="307.07968"
       y2="163.82806"
       gradientUnits="userSpaceOnUse"
       gradientTransform="translate(-26.306856,-35.389756)" /><linearGradient
       xlink:href="#linearGradient2"
       id="linearGradient29"
       gradientUnits="userSpaceOnUse"
       gradientTransform="translate(-26.306856,-35.389757)"
       x1="307.07968"
       y1="233.34369"
       x2="307.07968"
       y2="163.82806" /></defs><g
     id="layer1"
     transform="translate(-4.3788341,-205.27241)"><g
       id="g21"
       transform="translate(0,107.62001)"><path
         d="m 10.728834,104.0024 h 51.87981 a 21.616594,21.616594 0 0 1 15.281089,36.90598 l -48.712059,48.68561 a 10.808301,10.808301 0 0 1 -15.28109,-15.2894 l 27.52091,-27.50596 a 10.808297,10.808297 0 0 1 16.94823,2.1505 l 25.859509,43.80845"
         stroke="#000000"
         stroke-width="12.97"
         stroke-linecap="round"
         stroke-linejoin="round"
         fill="none"
         id="path1"
         style="fill:none;fill-opacity:1;stroke:url(#linearGradient14);stroke-width:12.7;stroke-dasharray:none" /><text
         xml:space="preserve"
         style="font-size:106.667px;text-align:start;letter-spacing:0px;writing-mode:lr-tb;direction:ltr;text-anchor:start;display:none;fill:url(#linearGradient18);stroke:none;stroke-opacity:1"
         x="94.702507"
         y="197.8055"
         id="text14"><tspan
           id="tspan14"
           x="0"
           y="0"
           style="font-style:normal;font-variant:normal;font-weight:normal;font-stretch:normal;font-size:106.667px;font-family:'Arial Rounded MT Bold';-inkscape-font-specification:'Arial Rounded MT Bold, ';letter-spacing:0px;fill:url(#linearGradient18);stroke:none;stroke-opacity:1">obaLink</tspan></text><path
         style="font-size:106.667px;font-family:'Arial Rounded MT Bold';-inkscape-font-specification:'Arial Rounded MT Bold, ';letter-spacing:0px;fill:url(#linearGradient29)"
         d="m 155.27561,170.20124 q 0,6.35419 -1.97917,11.71879 -1.97917,5.3646 -5.72918,9.21878 -3.75002,3.85418 -8.95837,5.93752 -5.20835,2.03125 -11.71878,2.03125 -6.45836,0 -11.61462,-2.08334 -5.15627,-2.08334 -8.95836,-5.93751 -3.75002,-3.90627 -5.72919,-9.1667 -1.927086,-5.31252 -1.927086,-11.71879 0,-6.45835 1.979176,-11.82295 1.97917,-5.3646 5.6771,-9.1667 3.69792,-3.80209 8.95836,-5.83335 5.26043,-2.08334 11.61462,-2.08334 6.45835,0 11.71878,2.08334 5.26044,2.08334 9.01045,5.93752 3.75001,3.85418 5.6771,9.1667 1.97917,5.31251 1.97917,11.71878 z m -14.27088,0 q 0,-8.69794 -3.85417,-13.54171 -3.8021,-4.84376 -10.26045,-4.84376 -4.16668,0 -7.34378,2.18751 -3.17709,2.13542 -4.89584,6.35418 -1.71876,4.21877 -1.71876,9.84378 0,5.57294 1.66667,9.73962 1.71876,4.16668 4.84377,6.40627 3.17709,2.1875 7.44794,2.1875 6.45835,0 10.26045,-4.84376 3.85417,-4.89585 3.85417,-13.48963 z m 38.59388,-41.92721 v 21.71882 q 4.01042,-4.16668 8.1771,-6.35419 4.16668,-2.23959 10.31254,-2.23959 7.08335,0 12.39587,3.38543 5.3646,3.33334 8.28127,9.73961 2.96876,6.35419 2.96876,15.10421 0,6.45836 -1.66667,11.87504 -1.61459,5.3646 -4.7396,9.32295 -3.12501,3.95834 -7.60419,6.14585 -4.42709,2.13542 -9.79169,2.13542 -3.28126,0 -6.19794,-0.78125 -2.86459,-0.78125 -4.89585,-2.03126 -2.03126,-1.30208 -3.48959,-2.65625 -1.40626,-1.35417 -3.75001,-4.06252 v 1.40626 q 0,4.01043 -1.92709,6.09377 -1.92709,2.03125 -4.89585,2.03125 -3.02085,0 -4.84377,-2.03125 -1.77084,-2.08334 -1.77084,-6.09377 v -62.08353 q 0,-4.32293 1.71876,-6.51044 1.77084,-2.23959 4.89585,-2.23959 3.28126,0 5.0521,2.13543 1.77084,2.08334 1.77084,5.9896 z m 0.67708,42.23971 q 0,8.48961 3.85418,13.07296 3.90626,4.53127 10.20836,4.53127 5.3646,0 9.21878,-4.63544 3.90627,-4.68751 3.90627,-13.38545 0,-5.62502 -1.61459,-9.68753 -1.61459,-4.06252 -4.58335,-6.25002 -2.96876,-2.23959 -6.92711,-2.23959 -4.06251,0 -7.2396,2.23959 -3.17709,2.1875 -5.00002,6.40627 -1.82292,4.16668 -1.82292,9.94794 z m 88.80236,20.57299 q -5.15626,4.01042 -10.00003,6.04168 -4.79168,1.97917 -10.78128,1.97917 -5.46877,0 -9.63545,-2.13542 -4.11459,-2.18751 -6.35418,-5.88543 -2.23959,-3.69793 -2.23959,-8.02086 0,-5.83335 3.69792,-9.94795 3.69793,-4.1146 10.15629,-5.52085 1.35417,-0.3125 6.71877,-1.40626 5.3646,-1.09375 9.16669,-1.97917 3.85418,-0.9375 8.33336,-2.23959 -0.26042,-5.62502 -2.29167,-8.22919 -1.97918,-2.65626 -8.28128,-2.65626 -5.41668,0 -8.17711,1.51042 -2.70834,1.51042 -4.68751,4.53127 -1.92709,3.02084 -2.76043,4.01043 -0.78125,0.9375 -3.43751,0.9375 -2.39584,0 -4.16668,-1.51042 -1.71875,-1.56251 -1.71875,-3.95835 0,-3.75001 2.65626,-7.29169 2.65625,-3.54168 8.28127,-5.83335 5.62502,-2.29167 14.01046,-2.29167 9.37503,0 14.73963,2.23959 5.3646,2.1875 7.55211,6.97918 2.23959,4.79169 2.23959,12.70838 0,5.00001 -0.0521,8.48961 0,3.48959 -0.0521,7.76044 0,4.01043 1.30209,8.38544 1.35417,4.32293 1.35417,5.57294 0,2.1875 -2.08334,4.01042 -2.03126,1.77084 -4.63543,1.77084 -2.18751,0 -4.32293,-2.03125 -2.13542,-2.08334 -4.53127,-5.9896 z m -0.9375,-20.57299 q -3.12501,1.14584 -9.11461,2.44793 -5.93752,1.25 -8.22919,1.875 -2.29168,0.57292 -4.37502,2.34376 -2.08334,1.71876 -2.08334,4.84377 0,3.22917 2.44793,5.52085 2.44792,2.23959 6.40627,2.23959 4.21876,0 7.76044,-1.82292 3.59376,-1.87501 5.26043,-4.79169 1.92709,-3.22917 1.92709,-10.62503 z m 44.5314,-40.98971 v 55.57309 h 31.35426 q 3.75001,0 5.72918,1.82293 2.03126,1.82292 2.03126,4.58334 0,2.81251 -1.97917,4.58335 -1.97917,1.71876 -5.78127,1.71876 h -37.34387 q -5.0521,0 -7.29169,-2.23959 -2.1875,-2.23959 -2.1875,-7.23961 v -58.80227 q 0,-4.68751 2.08334,-7.03127 2.13542,-2.34376 5.57293,-2.34376 3.4896,0 5.62502,2.34376 2.18751,2.29167 2.18751,7.03127 z m 62.5002,19.84381 v 41.09388 q 0,4.27085 -2.03126,6.45836 -2.03125,2.1875 -5.15626,2.1875 -3.12501,0 -5.10419,-2.23959 -1.92709,-2.23959 -1.92709,-6.40627 v -40.67721 q 0,-4.21876 1.92709,-6.35418 1.97918,-2.13543 5.10419,-2.13543 3.12501,0 5.15626,2.13543 2.03126,2.13542 2.03126,5.93751 z m -7.03127,-14.68754 q -2.96876,0 -5.10419,-1.82292 -2.08334,-1.82293 -2.08334,-5.15627 0,-3.02084 2.13543,-4.94793 2.1875,-1.97917 5.0521,-1.97917 2.76042,0 4.89585,1.77083 2.13542,1.77084 2.13542,5.15627 0,3.28126 -2.08334,5.15627 -2.08334,1.82292 -4.94793,1.82292 z m 34.63552,14.47921 v 1.71876 q 3.75001,-4.94794 8.17711,-7.23961 4.47918,-2.34376 10.26045,-2.34376 5.62502,0 10.05211,2.44793 4.4271,2.44792 6.61461,6.9271 1.40625,2.60418 1.82292,5.62502 0.41667,3.02084 0.41667,7.70836 v 26.45841 q 0,4.27085 -1.97917,6.45836 -1.92709,2.1875 -5.0521,2.1875 -3.1771,0 -5.15627,-2.23959 -1.97917,-2.23959 -1.97917,-6.40627 v -23.69799 q 0,-7.03127 -1.97917,-10.7292 -1.92709,-3.75001 -7.76045,-3.75001 -3.80209,0 -6.9271,2.29167 -3.12501,2.23959 -4.58335,6.19794 -1.04167,3.17709 -1.04167,11.87504 v 17.81255 q 0,4.32293 -2.03125,6.51044 -1.97918,2.13542 -5.15627,2.13542 -3.07293,0 -5.0521,-2.23959 -1.97917,-2.23959 -1.97917,-6.40627 v -41.09388 q 0,-4.06251 1.77084,-6.04168 1.77084,-2.03126 4.84376,-2.03126 1.87501,0 3.38543,0.88542 1.51042,0.88542 2.39584,2.65626 0.9375,1.77084 0.9375,4.32293 z m 86.92735,43.43764 -12.55212,-20.62507 -7.70836,7.29169 v 11.30212 q 0,4.1146 -2.18751,6.35419 -2.13542,2.1875 -4.94793,2.1875 -3.28126,0 -5.15627,-2.1875 -1.875,-2.18751 -1.875,-6.45836 v -60.62519 q 0,-4.73959 1.82292,-7.18752 1.82292,-2.50001 5.20835,-2.50001 3.28126,0 5.20835,2.23959 1.92709,2.23959 1.92709,6.61461 v 34.47927 l 15.98963,-16.77088 q 2.96876,-3.12501 4.53127,-4.27085 1.5625,-1.14584 3.80209,-1.14584 2.65626,0 4.4271,1.71876 1.77084,1.66667 1.77084,4.21876 0,3.12501 -5.78127,8.33336 l -7.55211,6.92711 14.58338,22.91673 q 1.61459,2.5521 2.29168,3.90627 0.72916,1.30208 0.72916,2.5 0,3.38543 -1.875,5.3646 -1.82292,1.92709 -4.84377,1.92709 -2.60417,0 -4.01043,-1.40625 -1.40625,-1.40626 -3.80209,-5.10418 z"
         id="text14-1"
         aria-label="obaLink" /></g><rect
       style="display:none;fill:#000000;fill-opacity:1;stroke:none;stroke-width:5.05657;stroke-dasharray:none;stroke-opacity:1"
       id="rect21"
       width="556.2428"
       height="6.5148373"
       x="-22.121399"
       y="252.74258" /></g></svg>
